<svg width="1024" height="1024" viewBox="0 0 1024 1024" fill="none" xmlns="http://www.w3.org/2000/svg">
<circle cx="652" cy="377" r="157" fill="url(#paint0_linear_1_12)" stroke="url(#paint1_linear_1_12)" style="" stroke-width="10"/>
<path d="M648.387 468.188C644.734 468.188 641.941 465.609 641.941 461.742V447.885C620.027 445.951 601.121 434.779 596.072 415.766C595.643 414.154 595.428 412.543 595.428 410.932C595.428 405.775 599.08 402.23 604.236 402.23C608.641 402.23 611.971 404.486 613.797 409.857C617.342 420.922 625.506 429.301 641.941 431.127V379.887L639.471 379.242C612.723 372.797 598.328 360.873 598.328 339.711C598.328 316.615 616.482 301.361 641.941 299.105V285.248C641.941 281.381 644.734 278.803 648.387 278.803C652.039 278.803 654.832 281.381 654.832 285.248V298.998C676.209 300.932 693.396 312.855 698.338 331.117C698.768 332.729 698.982 334.34 698.982 335.951C698.982 341.107 695.33 344.652 690.174 344.652C685.125 344.652 682.117 341.645 680.613 337.025C675.887 324.564 667.615 317.582 654.832 315.863V364.74L658.162 365.492C685.77 372.152 701.238 383.539 701.238 406.098C701.238 431.986 680.184 446.059 654.832 447.992V461.742C654.832 465.609 652.039 468.188 648.387 468.188ZM617.02 338.422C617.02 348.949 623.465 357.113 641.941 361.625V315.971C625.613 318.119 617.02 328.002 617.02 338.422ZM655.477 383.109L654.832 383.002V431.234C674.812 429.73 682.547 419.955 682.547 407.602C682.547 395.785 676.746 388.266 655.477 383.109Z" fill="url(#paint2_linear_1_12)" style=""/>
<defs>
<linearGradient id="paint0_linear_1_12" x1="412.5" y1="18" x2="778" y2="565" gradientUnits="userSpaceOnUse">
<stop offset="0.267147" stop-color="#D9D9D9" style="stop-color:#D9D9D9;stop-color:color(display-p3 0.8510 0.8510 0.8510);stop-opacity:1;"/>
<stop offset="0.952971" stop-color="#645E5E" style="stop-color:#645E5E;stop-color:color(display-p3 0.3905 0.3705 0.3705);stop-opacity:1;"/>
</linearGradient>
<linearGradient id="paint1_linear_1_12" x1="1035" y1="847.5" x2="443" y2="54" gradientUnits="userSpaceOnUse">
<stop offset="0.405412" stop-color="#242424" style="stop-color:#242424;stop-color:color(display-p3 0.1424 0.1411 0.1411);stop-opacity:1;"/>
<stop offset="0.816987" stop-color="#B1AFAF" style="stop-color:#B1AFAF;stop-color:color(display-p3 0.6952 0.6854 0.6854);stop-opacity:1;"/>
</linearGradient>
<linearGradient id="paint2_linear_1_12" x1="632" y1="358" x2="547.5" y2="144" gradientUnits="userSpaceOnUse">
<stop stop-color="#26292E" style="stop-color:#26292E;stop-color:color(display-p3 0.1481 0.1627 0.1809);stop-opacity:1;"/>
<stop offset="1" stop-color="#85909E" style="stop-color:#85909E;stop-color:color(display-p3 0.5200 0.5643 0.6196);stop-opacity:1;"/>
</linearGradient>
</defs>
</svg>
